<svg width="32" height="32" viewBox="0 0 32 32" fill="none" xmlns="http://www.w3.org/2000/svg">
  <!-- 外圈边框 -->
  <circle cx="16" cy="16" r="16" fill="#E67E22"/>
  <circle cx="16" cy="16" r="14.5" fill="none" stroke="#FFFFFF" stroke-width="0.8"/>
  
  <!-- 内圈 -->
  <circle cx="16" cy="16" r="13" fill="#D35400"/>
  
  <!-- 字母A -->
  <path d="M12 23V21.5L14.5 18H17.5L20 21.5V23H18.5V21H13.5V23H12Z" fill="#FFFFFF"/>
  <path d="M14.5 11L16 13L17.5 11H19L16.5 16H15.5L13 11H14.5Z" fill="#FFFFFF"/>
  <rect x="14.8" y="14.5" width="2.4" height="1.2" fill="#FFFFFF"/>
  
  <!-- Amazon箭头装饰 -->
  <path d="M10 26C10 26 14 24 22 24C22 24 22 25 20 26" stroke="#FFFFFF" stroke-width="1.2" stroke-linecap="round"/>
  
  <!-- 小装饰点 -->
  <circle cx="22" cy="10" r="1.5" fill="#FFFFFF" opacity="0.9"/>
  
  <!-- 顶部文字弧线装饰 -->
  <path d="M8 8C8 8 12 6 16 6C20 6 24 8 24 8" stroke="#FFFFFF" stroke-width="0.8" stroke-linecap="round" opacity="0.7"/>
</svg>