<svg width="48" height="48" viewBox="0 0 48 48" fill="none" xmlns="http://www.w3.org/2000/svg">
  <!-- 外圈边框 -->
  <circle cx="24" cy="24" r="24" fill="#E67E22"/>
  <circle cx="24" cy="24" r="22" fill="none" stroke="#FFFFFF" stroke-width="1.2"/>
  
  <!-- 内圈 -->
  <circle cx="24" cy="24" r="19.5" fill="#D35400"/>
  
  <!-- 字母A主体 -->
  <path d="M18 34.5V32L22 27H26L30 32V34.5H27.5V31.5H20.5V34.5H18Z" fill="#FFFFFF"/>
  <path d="M21 16.5L24 19.5L27 16.5H29L25 24H23L19 16.5H21Z" fill="#FFFFFF"/>
  <rect x="22.2" y="21.8" width="3.6" height="1.8" fill="#FFFFFF"/>
  
  <!-- Amazon特色箭头 -->
  <path d="M15 39C15 39 21 36 33 36C33 36 33 37.5 30 39" stroke="#FFFFFF" stroke-width="1.8" stroke-linecap="round"/>
  <path d="M30 37L33 39L30 41" stroke="#FFFFFF" stroke-width="1.2" stroke-linecap="round" stroke-linejoin="round" fill="none"/>
  
  <!-- 装饰元素 -->
  <circle cx="33" cy="15" r="2.2" fill="#FFFFFF" opacity="0.9"/>
  <circle cx="15" cy="15" r="1.5" fill="#FFFFFF" opacity="0.6"/>
  
  <!-- 顶部弧形文字装饰 -->
  <path d="M12 12C12 12 18 9 24 9C30 9 36 12 36 12" stroke="#FFFFFF" stroke-width="1.2" stroke-linecap="round" opacity="0.7"/>
  
  <!-- 底部小装饰线 -->
  <path d="M12 36C12 36 15 35 18 35" stroke="#FFFFFF" stroke-width="0.8" stroke-linecap="round" opacity="0.5"/>
  
  <!-- 中心小高光 -->
  <circle cx="20" cy="20" r="1" fill="#FFFFFF" opacity="0.3"/>
</svg>